<?xml version="1.0" encoding="UTF-8" standalone="no"?> <!-- Created with Vectornator for iOS (http://vectornator.io/) --><!DOCTYPE svg PUBLIC "-//W3C//DTD SVG 1.1//EN" "http://www.w3.org/Graphics/SVG/1.1/DTD/svg11.dtd">
<svg height="100%" style="fill-rule:evenodd;clip-rule:evenodd;stroke-linecap:round;stroke-linejoin:round;" xmlns:xlink="http://www.w3.org/1999/xlink" xmlns="http://www.w3.org/2000/svg" xml:space="preserve" width="100%" xmlns:vectornator="http://vectornator.io" version="1.1" viewBox="0 0 114.063 114.116">
<metadata>
<vectornator:setting key="DimensionsVisible" value="1"/>
<vectornator:setting key="PencilOnly" value="0"/>
<vectornator:setting key="SnapToPoints" value="0"/>
<vectornator:setting key="OutlineMode" value="0"/>
<vectornator:setting key="CMYKEnabledKey" value="0"/>
<vectornator:setting key="RulersVisible" value="1"/>
<vectornator:setting key="SnapToEdges" value="0"/>
<vectornator:setting key="GuidesVisible" value="1"/>
<vectornator:setting key="DisplayWhiteBackground" value="0"/>
<vectornator:setting key="doHistoryDisabled" value="0"/>
<vectornator:setting key="SnapToGuides" value="1"/>
<vectornator:setting key="TimeLapseWatermarkDisabled" value="0"/>
<vectornator:setting key="Units" value="Millimeters"/>
<vectornator:setting key="DynamicGuides" value="0"/>
<vectornator:setting key="IsolateActiveLayer" value="0"/>
<vectornator:setting key="SnapToGrid" value="0"/>
</metadata>
<defs/>
<g id="Layer 2" vectornator:layerName="Layer 2">
<path stroke="#fad22f" stroke-width="7.35693" d="M-0.277755-32.5962C-2.86067-28.7219-4.83857-26.2874-8.68182-23.7253" fill="#ffe800" stroke-linecap="round" fill-opacity="0" opacity="1" stroke-linejoin="round"/>
<path stroke="#fad22f" stroke-width="7.35693" d="M-192.492-13.8784C-192.492-16.1825-192.492-18.4866-192.492-20.7907" fill="#ffe800" stroke-linecap="round" fill-opacity="0" opacity="1" stroke-linejoin="round"/>
</g>
<g id="Layer 1 copy" vectornator:layerName="Layer 1 copy">
<path stroke="#ffc900" stroke-width="7.35693" d="M47.5401+62.1397C48.3923+67.3626+50.5222+72.0381+51.9872+77.0183C53.4167+81.8778+53.9136+87.4658+56.2554+91.9259C57.8502+94.9634+63.8647+105.507+62.9899+103.841" fill="#ffe800" stroke-linecap="round" fill-opacity="0" opacity="1" stroke-linejoin="round"/>
<path stroke="#ffc900" stroke-width="7.35693" d="M53.0543+61.0564C53.633+64.6032+55.5339+67.7337+56.7136+71.1069C59.1093+77.9578+60.3137+84.9201+62.9805+91.5892C64.3029+94.8962+69.5395+106.52+69.6395+106.448" fill="#ffe800" stroke-linecap="round" fill-opacity="0" opacity="1" stroke-linejoin="round"/>
<path stroke="#ffc900" stroke-width="7.35693" d="M58.6306+59.2287C57.8825+61.6307+60.7811+67.127+61.5745+69.3959C64.245+77.0321+66.6905+84.7166+69.8672+92.0915C71.3228+95.4708+74.8557+106.275+74.8557+106.275" fill="#ffe800" stroke-linecap="round" fill-opacity="0" opacity="1" stroke-linejoin="round"/>
<path stroke="#ffc900" stroke-width="7.35693" d="M62.7876+54.3281C66.9413+65.3923+69.3267+77.057+73.6044+87.9937C75.0352+91.6518+79.0697+104.508+79.1789+104.157" fill="#ffe800" stroke-linecap="round" fill-opacity="0" opacity="1" stroke-linejoin="round"/>
<path stroke="#ffc900" stroke-width="7.35693" d="M69.7343+52.5449C71.5102+63.4283+74.7397+73.4266+78.5934+83.6917C79.8932+87.1539+83.4883+100.388+83.2446+99.8219" fill="#ffe800" stroke-linecap="round" fill-opacity="0" opacity="1" stroke-linejoin="round"/>
<path stroke="#ffc900" stroke-width="7.35693" d="M44.7958+63.3218C45.6582+68.6074+47.5789+73.7468+49.1515+78.766C51.4608+86.1361+52.3135+93.6631+56.3458+100.356C58.6643+104.204+64.7394+109.888+69.1906+107.072" fill="#ffe800" stroke-linecap="round" fill-opacity="0" opacity="1" stroke-linejoin="round"/>
<path stroke="#ff6000" stroke-width="7.35693" d="M44.5285+80.7907C43.0245+78.7077+32.4787+69.4584+17.9228+62.3775" fill="#ffe800" stroke-linecap="round" fill-opacity="0" opacity="1" stroke-linejoin="round"/>
<path stroke="#ff6000" stroke-width="7.35693" d="M42.0503+72.0816C42.2352+73.2146+34.9066+65.629+30.486+61.6385C29.2747+60.545+22.2003+51.7466+23.4654+54.156" fill="#ffe800" stroke-linecap="round" fill-opacity="0" opacity="1" stroke-linejoin="round"/>
<path stroke="#ff6000" stroke-width="7.35693" d="M22.5079+40.927C22.0703+40.321+27.9639+49.0452+29.3053+50.4858C30.9358+52.2369+39.0566+64.9144+41.1299+64.5762" fill="#ffe800" stroke-linecap="round" fill-opacity="0" opacity="1" stroke-linejoin="round"/>
<path stroke="#ff6000" stroke-width="7.35693" d="M21.9874+29.0296C21.1623+29.6254+34.8595+47.0977+39.8265+53.118C41.6367+55.3121+42.5906+60.6357+44.3721+61.9174" fill="#ffe800" stroke-linecap="round" fill-opacity="0" opacity="1" stroke-linejoin="round"/>
<path stroke="#ff6000" stroke-width="7.35693" d="M33.2442+33.0601C32.5047+32.528+37.6438+41.2473+39.081+43.8881C43.2515+51.5509+41.5184+50.9532+47.4968+57.3738" fill="#ffe800" stroke-linecap="round" fill-opacity="0" opacity="1" stroke-linejoin="round"/>
<path stroke="#ff6000" stroke-width="7.35693" d="M40.789+23.1505C40.4411+25.3064+40.4596+28.8771+41.2395+31.0331C44.1701+39.1346+45.9828+36.769+48.2534+45.1342C49.7943+50.8113+54.4898+58.4713+54.0582+58.6979" fill="#ffe800" stroke-linecap="round" fill-opacity="0" opacity="1" stroke-linejoin="round"/>
<path stroke="#ff6000" stroke-width="7.35693" d="M44.3081+9.97457C43.4634+12.687+48.2452+33.1724+51.0382+40.8247C51.4789+42.0321+54.5628+50.348+56.2244+53.561" fill="#ffe800" stroke-linecap="round" fill-opacity="0" opacity="1" stroke-linejoin="round"/>
<path stroke="#ff6000" stroke-width="7.35693" d="M49.7805+13.8328C50.7254+19.9745+54.6572+30.3769+56.0197+38.7268C56.5961+42.2598+61.2196+55.1013+61.17+54.7974" fill="#ffe800" stroke-linecap="round" fill-opacity="0" opacity="1" stroke-linejoin="round"/>
<path stroke="#ff6000" stroke-width="7.35693" d="M58.5004+20.3545C56.7123+22.8398+62.2072+37.2702+62.6867+40.2091C63.1536+43.0701+64.7778+53.0243+64.7+52.5475" fill="#ffe800" stroke-linecap="round" fill-opacity="0" opacity="1" stroke-linejoin="round"/>
<path stroke="#ff6000" stroke-width="7.35693" d="M66.3998+19.0379C64.0233+26.6688+67.1994+31.8628+68.4381+39.4542C68.9244+42.4345+69.1512+52.5533+67.602+53.1921" fill="#ffe800" stroke-linecap="round" fill-opacity="0" opacity="1" stroke-linejoin="round"/>
<path stroke="#ff6000" stroke-width="7.35693" d="M74.0822+52.6688C72.53+43.1559+72.8606+32.0931+73.202+22.5221C73.2501+21.175+73.9553+12.8286+75.4727+14.93" fill="#ffe800" stroke-linecap="round" fill-opacity="0" opacity="1" stroke-linejoin="round"/>
<path stroke="#ff6000" stroke-width="7.35693" d="M77.7696+57.7305C75.9627+54.3908+80.1814+41.0786+80.3878+36.4415C80.4142+35.8484+80.0923+23.4893+81.2846+25.0981" fill="#ffe800" stroke-linecap="round" fill-opacity="0" opacity="1" stroke-linejoin="round"/>
<path stroke="#ff6000" stroke-width="7.35693" d="M79.0983+63.0895C81.8972+53.6923+85.4198+44.0891+90.6538+35.5993C92.3629+32.8272+93.126+29.855+95.6748+27.9659" fill="#ffe800" stroke-linecap="round" fill-opacity="0" opacity="1" stroke-linejoin="round"/>
<path stroke="#ff6000" stroke-width="7.35693" d="M81.1753+68.3169C83.2322+63.6335+86.1042+59.2693+88.4218+54.699C88.9626+53.6327+89.7791+52.0122+90.7011+51.2123C90.982+50.9686+92.5516+50.1152+91.6918+50.2665" fill="#ffe800" stroke-linecap="round" fill-opacity="0" opacity="1" stroke-linejoin="round"/>
<path stroke="#ff6000" stroke-width="7.35693" d="M82.5144+74.8312C83.9111+70.1415+89.0883+63.1672+92.1494+59.4431C92.8537+58.5863+96.7635+54.9768+96.5972+54.0319" fill="#ffe800" stroke-linecap="round" fill-opacity="0" opacity="1" stroke-linejoin="round"/>
<path stroke="#000000" stroke-width="3.29593" d="M43.1399+64.4383C43.1399+69.759+51.3505+100.804+58.4126+106.984C67.1103+114.594+83.7106+107.726+87.049+97.711C88.3616+93.7732+74.7762+63.5077+74.7762+51.6201" fill="#ffe800" stroke-linecap="round" fill-opacity="0" opacity="1" stroke-linejoin="round"/>
<path stroke="#000000" stroke-width="1.92633" d="M54.6518+77.4257L54.6518+77.4257C56.2983+77.4257+57.633+78.7604+57.633+80.4069L57.633+80.8353C57.633+82.4817+56.2983+83.8164+54.6518+83.8164L54.6518+83.8164C53.0054+83.8164+51.6707+82.4817+51.6707+80.8353L51.6707+80.4069C51.6707+78.7604+53.0054+77.4257+54.6518+77.4257Z" fill="#000000" stroke-linecap="round" opacity="1" stroke-linejoin="round"/>
<path stroke="#000000" stroke-width="1.92633" d="M71.6204+72.0374L71.6204+72.0374C73.2668+72.0374+74.6015+73.3721+74.6015+75.0185L74.6015+75.4469C74.6015+77.0934+73.2668+78.4281+71.6204+78.4281L71.6204+78.4281C69.9739+78.4281+68.6392+77.0934+68.6392+75.4469L68.6392+75.0185C68.6392+73.3721+69.9739+72.0374+71.6204+72.0374Z" fill="#000000" stroke-linecap="round" opacity="1" stroke-linejoin="round"/>
<path stroke="#000000" stroke-width="3.06044" d="M49.4883+89.0084C37.1904+75.4401+25.4261+72.9765+10.9022+61.8232C31.6171+66.4912+20.8802+38.9894+19.678+27.1821C38.7075+41.5004+38.8693+19.7789+41.9957+8.30216C42.4994+6.45312+42.9954+4.71994+43.5244+3.23912C45.0966+6.38797+46.828+9.18753+48.685+11.5353C56.6309+21.5814+66.8747+23.3566+76.7677+8.83453C77.1814+22.6168+81.7625+37.8322+99.1516+24.8967C96.8989+32.0859+81.2619+46.369+99.6939+51.6353C93.844+59.5715+88.3615+69.6057+83.2517+78.0375" fill="#ffe800" stroke-linecap="round" fill-opacity="0" opacity="1" stroke-linejoin="round"/>
</g>
</svg>
