<?xml version="1.0" encoding="UTF-8" standalone="no"?> <!-- Created with Vectornator for iOS (http://vectornator.io/) --><!DOCTYPE svg PUBLIC "-//W3C//DTD SVG 1.1//EN" "http://www.w3.org/Graphics/SVG/1.1/DTD/svg11.dtd">
<svg height="100%" style="fill-rule:evenodd;clip-rule:evenodd;stroke-linecap:round;stroke-linejoin:round;" xmlns:xlink="http://www.w3.org/1999/xlink" xmlns="http://www.w3.org/2000/svg" xml:space="preserve" width="100%" xmlns:vectornator="http://vectornator.io" version="1.1" viewBox="0 0 123.693 125.247">
<metadata>
<vectornator:setting key="DimensionsVisible" value="1"/>
<vectornator:setting key="PencilOnly" value="0"/>
<vectornator:setting key="SnapToPoints" value="0"/>
<vectornator:setting key="OutlineMode" value="0"/>
<vectornator:setting key="CMYKEnabledKey" value="0"/>
<vectornator:setting key="RulersVisible" value="1"/>
<vectornator:setting key="SnapToEdges" value="0"/>
<vectornator:setting key="GuidesVisible" value="1"/>
<vectornator:setting key="DisplayWhiteBackground" value="0"/>
<vectornator:setting key="doHistoryDisabled" value="0"/>
<vectornator:setting key="SnapToGuides" value="1"/>
<vectornator:setting key="TimeLapseWatermarkDisabled" value="0"/>
<vectornator:setting key="Units" value="Millimeters"/>
<vectornator:setting key="DynamicGuides" value="0"/>
<vectornator:setting key="IsolateActiveLayer" value="0"/>
<vectornator:setting key="SnapToGrid" value="0"/>
</metadata>
<defs/>
<g id="Layer 2" vectornator:layerName="Layer 2">
<path stroke="#fad22f" stroke-width="7.35693" d="M-0.277755-32.5962C-2.86067-28.7219-4.83857-26.2874-8.68182-23.7253" fill="#ffe800" stroke-linecap="round" fill-opacity="0" opacity="1" stroke-linejoin="round"/>
<path stroke="#fad22f" stroke-width="7.35693" d="M-192.492-13.8784C-192.492-16.1825-192.492-18.4866-192.492-20.7907" fill="#ffe800" stroke-linecap="round" fill-opacity="0" opacity="1" stroke-linejoin="round"/>
</g>
<g id="Layer 1" vectornator:layerName="Layer 1">
<g opacity="1">
<path stroke="#f9d22f" stroke-width="7.35693" d="M55.8854+71.0415C56.7376+76.2644+58.8675+80.9399+60.3325+85.9201C61.762+90.7796+62.2588+96.3676+64.6007+100.828C66.1955+103.865+67.7609+107.527+68.9752+110.761C69.3514+111.764+72.5209+115.296+71.6462+113.63" fill="#ffe800" stroke-linecap="round" fill-opacity="0" opacity="1" stroke-linejoin="round"/>
<path stroke="#f9d22f" stroke-width="7.35693" d="M61.3996+69.9582C61.9783+73.505+63.8792+76.6355+65.0588+80.0087C67.4546+86.8596+69.7688+93.7982+72.4357+100.467C73.7581+103.774+74.9506+107.05+76.0658+110.339C76.1914+110.71+77.8847+115.422+77.9848+115.35C78.5718+114.926+77.6454+113.08+77.3683+112.696" fill="#ffe800" stroke-linecap="round" fill-opacity="0" opacity="1" stroke-linejoin="round"/>
<path stroke="#f9d22f" stroke-width="7.35693" d="M66.9759+68.1305C66.2278+70.5325+69.1264+76.0288+69.9198+78.2977C72.5903+85.9339+75.0358+93.6184+78.2124+100.993C79.6681+104.373+80.6366+107.855+81.9009+111.223C82.5408+112.927+83.3126+116.5+83.3126+116.5C83.3126+116.5+82.6223+113.004+81.3023+112.055" fill="#ffe800" stroke-linecap="round" fill-opacity="0" opacity="1" stroke-linejoin="round"/>
<path stroke="#f9d22f" stroke-width="7.35693" d="M71.1328+63.2299C75.2865+74.2941+77.672+85.9588+81.9497+96.8955C83.3805+100.554+84.6552+104.102+85.7548+107.84C86.1799+109.285+86.6957+110.615+87.1703+112.015C87.2883+112.363+87.415+113.409+87.5242+113.059C87.8479+112.019+86.2804+109.505+85.8715+108.555" fill="#ffe800" stroke-linecap="round" fill-opacity="0" opacity="1" stroke-linejoin="round"/>
<path stroke="#f9d22f" stroke-width="7.35693" d="M77.3698+59.8258C79.1456+70.7092+83.085+82.3284+86.9387+92.5935C88.2384+96.0557+88.8617+99.7594+89.9702+103.297C90.3468+104.499+90.4977+105.814+90.9405+106.994C91.157+107.571+91.8336+109.289+91.5899+108.724C90.9952+107.343+90.888+105.908+90.1744+104.549" fill="#ffe800" stroke-linecap="round" fill-opacity="0" opacity="1" stroke-linejoin="round"/>
<path stroke="#f9d22f" stroke-width="7.35693" d="M53.1411+72.2236C54.0035+77.5092+55.9242+82.6486+57.4968+87.6678C59.8061+95.0379+60.6588+102.565+64.6911+109.258C67.0096+113.106+72.1813+119.84+77.5359+115.973" fill="#ffe800" stroke-linecap="round" fill-opacity="0" opacity="1" stroke-linejoin="round"/>
<path stroke="#ff9500" stroke-width="7.35693" d="M54.2998+90.576C52.7957+88.493+50.1565+87.3658+48.1804+85.6999C42.9917+81.3258+38.7311+77.0078+33.2707+73.0793C30.7319+71.2528+22.3483+69.1443+21.7981+65.7724" fill="#ffe800" stroke-linecap="round" fill-opacity="0" opacity="1" stroke-linejoin="round"/>
<path stroke="#ff9500" stroke-width="7.35693" d="M52.4249+81.3358C52.6098+82.4688+47.0196+78.2279+46.3018+77.5619C41.9686+73.5411+38.046+69.1181+33.6254+65.1276C32.4141+64.0341+27.3723+58.0248+28.6373+60.4341" fill="#ffe800" stroke-linecap="round" fill-opacity="0" opacity="1" stroke-linejoin="round"/>
<path stroke="#ff9500" stroke-width="7.35693" d="M31.2546+52.8475C30.817+52.2416+35.1931+57.8886+36.5345+59.3292C38.165+61.0803+48.4439+73.3572+50.5172+73.0189" fill="#ffe800" stroke-linecap="round" fill-opacity="0" opacity="1" stroke-linejoin="round"/>
<path stroke="#ff9500" stroke-width="7.35693" d="M29.023+34.6703C28.1979+35.2661+33.3438+42.4963+33.9377+43.4144C38.1954+49.9968+43.2048+55.9995+48.1717+62.0198C49.9819+64.2139+51.3417+67.4569+53.1232+68.7386" fill="#ffe800" stroke-linecap="round" fill-opacity="0" opacity="1" stroke-linejoin="round"/>
<path stroke="#ff9500" stroke-width="7.35693" d="M37.497+30.3504C36.7575+29.8183+38.2177+33.9118+38.5841+34.7625C39.7784+37.5352+41.2004+40.0884+42.6377+42.7292C46.8081+50.392+49.8637+59.855+55.8421+66.2756" fill="#ffe800" stroke-linecap="round" fill-opacity="0" opacity="1" stroke-linejoin="round"/>
<path stroke="#ff9500" stroke-width="7.35693" d="M44.9423+21.976C44.5944+24.1319+46.7563+27.8413+47.5362+29.9974C50.4668+38.0989+52.5692+46.3616+56.5987+54.036C58.5156+57.6868+60.585+62.6392+61.6226+65.6996C61.6825+65.8762+62.4081+66.5167+61.9765+66.7433C61.7209+66.8775+61.2506+66.1532+61.1153+65.9659" fill="#ffe800" stroke-linecap="round" fill-opacity="0" opacity="1" stroke-linejoin="round"/>
<path stroke="#ff9500" stroke-width="7.35693" d="M48.8038+16.3894C47.9591+19.1018+50.4425+24.0906+51.3902+26.6149C54.2606+34.261+56.5905+42.0742+59.3835+49.7265C59.8242+50.9339+66.1483+67.7643+63.247+61.0287" fill="#ffe800" stroke-linecap="round" fill-opacity="0" opacity="1" stroke-linejoin="round"/>
<path stroke="#ff9500" stroke-width="7.35693" d="M56.4421+12.5729C55.4551+15.7422+57.4748+19.9141+58.1344+22.9443C59.9353+31.218+63.0025+39.2787+64.3649+47.6286C64.9414+51.1616+65.8839+54.4474+66.9513+57.8541C67.3724+59.1981+68.1149+60.4559+68.5165+61.8211C68.6034+62.1165+68.8907+62.9899+68.8412+62.686C68.6501+61.5152+67.7622+60.2163+67.3344+59.0767" fill="#ffe800" stroke-linecap="round" fill-opacity="0" opacity="1" stroke-linejoin="round"/>
<path stroke="#ff9500" stroke-width="7.35693" d="M68.0823+23.157C66.2942+25.6423+70.5525+46.172+71.032+49.1109C71.4989+51.9719+71.9657+54.833+72.4325+57.6941C72.559+58.469+72.6854+59.2438+72.8118+60.0187C72.8896+60.4956+73.123+61.9261+73.0452+61.4493C72.8425+60.2067+72.6613+58.8693+72.0749+57.7525" fill="#ffe800" stroke-linecap="round" fill-opacity="0" opacity="1" stroke-linejoin="round"/>
<path stroke="#ff9500" stroke-width="7.35693" d="M74.5159+23.2087C72.1395+30.8396+75.5447+40.7646+76.7834+48.356C77.2696+51.3363+77.7559+54.3166+78.2422+57.2969C78.3492+57.9526+78.4562+58.6082+78.5631+59.2639C78.6312+59.6811+78.8355+60.9328+78.7674+60.5156C78.6993+60.0984+78.6312+59.6811+78.5631+59.2639" fill="#ffe800" stroke-linecap="round" fill-opacity="0" opacity="1" stroke-linejoin="round"/>
<path stroke="#ff9500" stroke-width="7.35693" d="M82.4275+61.5706C80.8753+52.0577+81.2059+40.9949+81.5473+31.4239C81.5953+30.0768+81.1771+16.1013+82.6944+18.2027" fill="#ffe800" stroke-linecap="round" fill-opacity="0" opacity="1" stroke-linejoin="round"/>
<path stroke="#ff9500" stroke-width="7.35693" d="M86.1149+66.6323C84.308+63.2926+88.5267+49.9804+88.7331+45.3433C88.7595+44.7502+88.4376+32.3911+89.6299+33.9999" fill="#ffe800" stroke-linecap="round" fill-opacity="0" opacity="1" stroke-linejoin="round"/>
<path stroke="#ff9500" stroke-width="7.35693" d="M87.4436+71.9913C90.2425+62.5941+93.7651+52.9909+98.9991+44.5011C100.708+41.729+101.471+38.7568+104.02+36.8677" fill="#ffe800" stroke-linecap="round" fill-opacity="0" opacity="1" stroke-linejoin="round"/>
<path stroke="#ff9500" stroke-width="7.35693" d="M89.5206+77.2187C91.5775+72.5353+94.4495+68.1711+96.7671+63.6008C97.3079+62.5345+98.1244+60.914+99.0464+60.1141C99.3273+59.8704+100.897+59.017+100.037+59.1683" fill="#ffe800" stroke-linecap="round" fill-opacity="0" opacity="1" stroke-linejoin="round"/>
<path stroke="#ff9500" stroke-width="7.35693" d="M90.8597+83.733C92.2564+79.0433+97.4336+72.069+100.495+68.3449C101.199+67.4881+105.109+63.8786+104.942+62.9337" fill="#ffe800" stroke-linecap="round" fill-opacity="0" opacity="1" stroke-linejoin="round"/>
<path stroke="#fad22f" stroke-width="7.35693" d="M53.5407+73.3571C54.2979+74.5109+53.9033+75.836+54.3143+77.0993C56.2786+83.1378+57.1481+90.5916+60.7059+96.013" fill="#ffe800" stroke-linecap="round" fill-opacity="0" opacity="1" stroke-linejoin="round"/>
<path stroke="#fad22f" stroke-width="7.35693" d="M80.0319+65.3881C80.543+70.8874+84.3696+83.6855+87.2634+88.3391" fill="#ffe800" stroke-linecap="round" fill-opacity="0" opacity="1" stroke-linejoin="round"/>
<path stroke="#fad22f" stroke-width="7.35693" d="M65.547+92.3967C65.7526+94.609+66.831+98.761+68.0149+100.665" fill="#ffe800" stroke-linecap="round" fill-opacity="0" opacity="1" stroke-linejoin="round"/>
<g opacity="1">
<path stroke="#000000" stroke-width="3.29593" d="M51.4852+73.3401C51.4852+78.6608+59.6958+109.706+66.7579+115.886C75.4556+123.496+92.0559+116.628+95.3943+106.613C96.7069+102.675+83.1215+72.4095+83.1215+60.5219" fill="#ffe800" stroke-linecap="round" fill-opacity="0" opacity="1" stroke-linejoin="round"/>
<path stroke="#000000" stroke-width="1.92633" d="M62.9971+86.3275L62.9971+86.3275C64.6436+86.3275+65.9783+87.6622+65.9783+89.3087L65.9783+89.7371C65.9783+91.3835+64.6436+92.7182+62.9971+92.7182L62.9971+92.7182C61.3507+92.7182+60.0159+91.3835+60.0159+89.7371L60.0159+89.3087C60.0159+87.6622+61.3507+86.3275+62.9971+86.3275Z" fill="#000000" stroke-linecap="round" opacity="1" stroke-linejoin="round"/>
<path stroke="#000000" stroke-width="1.92633" d="M79.9656+80.9392L79.9656+80.9392C81.6121+80.9392+82.9468+82.2739+82.9468+83.9203L82.9468+84.3487C82.9468+85.9952+81.6121+87.3299+79.9656+87.3299L79.9656+87.3299C78.3192+87.3299+76.9845+85.9952+76.9845+84.3487L76.9845+83.9203C76.9845+82.2739+78.3192+80.9392+79.9656+80.9392Z" fill="#000000" stroke-linecap="round" opacity="1" stroke-linejoin="round"/>
<path stroke="#000000" stroke-width="3.06044" d="M57.8336+97.9102C45.5357+84.3419+29.168+75.1119+14.6442+63.9586C35.359+68.6267+27.739+38.8355+26.5368+27.0281C42.1874+41.2376+46.7043+16.7712+50.517+6.09918C58.8162+22.7216+72.484+28.5097+84.6891+10.5937C85.1028+24.376+90.1078+46.734+107.497+33.7985C105.244+40.9877+95.7147+60.3385+107.542+62.0272C101.692+69.9635+96.7067+78.5075+91.597+86.9393" fill="#ffe800" stroke-linecap="round" fill-opacity="0" opacity="1" stroke-linejoin="round"/>
</g>
</g>
</g>
</svg>
