<?xml version="1.0" encoding="UTF-8" standalone="no"?>
<!-- Created with Inkscape (http://www.inkscape.org/) -->

<svg
   width="512"
   height="512"
   viewBox="0 0 512 512"
   version="1.1"
   id="svg1"
   inkscape:version="1.4.2 (ebf0e940d0, 2025-05-08)"
   sodipodi:docname="hackerspub_angry.svg"
   xmlns:inkscape="http://www.inkscape.org/namespaces/inkscape"
   xmlns:sodipodi="http://sodipodi.sourceforge.net/DTD/sodipodi-0.dtd"
   xmlns="http://www.w3.org/2000/svg"
   xmlns:svg="http://www.w3.org/2000/svg">
  <sodipodi:namedview
     id="namedview1"
     pagecolor="#ffffff"
     bordercolor="#bbbbbb"
     borderopacity="0.25"
     inkscape:showpageshadow="2"
     inkscape:pageopacity="0.0"
     inkscape:pagecheckerboard="0"
     inkscape:deskcolor="#d1d1d1"
     inkscape:document-units="px"
     inkscape:zoom="1.7275391"
     inkscape:cx="174.81515"
     inkscape:cy="441.37931"
     inkscape:window-width="1915"
     inkscape:window-height="2158"
     inkscape:window-x="0"
     inkscape:window-y="0"
     inkscape:window-maximized="1"
     inkscape:current-layer="layer1" />
  <defs
     id="defs1">
    <clipPath
       clipPathUnits="userSpaceOnUse"
       id="clipPath44">
      <path
         d="M 0,982 H 1512 V 0 H 0 Z"
         transform="translate(-329.72453,-527.33252)"
         id="path44" />
    </clipPath>
    <clipPath
       clipPathUnits="userSpaceOnUse"
       id="clipPath46">
      <path
         d="M 0,982 H 1512 V 0 H 0 Z"
         transform="translate(-302.01263,-501.98421)"
         id="path46" />
    </clipPath>
    <clipPath
       clipPathUnits="userSpaceOnUse"
       id="clipPath48">
      <path
         d="M 0,982 H 1512 V 0 H 0 Z"
         transform="translate(-240.28388,-524.14641)"
         id="path48" />
    </clipPath>
    <clipPath
       clipPathUnits="userSpaceOnUse"
       id="clipPath50">
      <path
         d="M 0,982 H 1512 V 0 H 0 Z"
         transform="translate(-285.50798,-513.00431)"
         id="path50" />
    </clipPath>
    <clipPath
       clipPathUnits="userSpaceOnUse"
       id="clipPath52">
      <path
         d="M 0,982 H 1512 V 0 H 0 Z"
         transform="translate(-347.72918,-462.16081)"
         id="path52" />
    </clipPath>
    <clipPath
       clipPathUnits="userSpaceOnUse"
       id="clipPath54">
      <path
         d="M 0,982 H 1512 V 0 H 0 Z"
         transform="translate(-185.4033,-418.49981)"
         id="path54" />
    </clipPath>
    <clipPath
       clipPathUnits="userSpaceOnUse"
       id="clipPath56">
      <path
         d="M 0,982 H 1512 V 0 H 0 Z"
         transform="translate(-383.10128,-452.31971)"
         id="path56" />
    </clipPath>
    <clipPath
       clipPathUnits="userSpaceOnUse"
       id="clipPath58">
      <path
         d="M 0,982 H 1512 V 0 H 0 Z"
         transform="translate(-296.03018,-510.69572)"
         id="path58" />
    </clipPath>
  </defs>
  <g
     inkscape:label="Layer 1"
     inkscape:groupmode="layer"
     id="layer1">
    <g
       id="layer1-5"
       transform="matrix(5.2623117,0,0,5.2623117,-297.62125,-487.48376)">
      <g
         id="g2"
         transform="translate(-130.70737,23.609447)">
        <path
           id="path43"
           d="M 0,0 C 5.078,2.112 13.613,8.06 11.38,17.902 10.644,21.15 10.587,22.452 9.667,22.66 7.777,22.114 3.585,19.592 3.267,18.776 2.657,16.849 4.242,16.006 4.242,15.125 4.238,9.369 1.669,6.623 -1.435,5.329 c -4.891,-1.623 -8.74,-1.431 -9.817,3.658 -0.153,0.722 0.629,3.053 -0.167,3.732 -0.632,0.539 -6.235,-0.759 -7.06,-0.98 -0.906,0.105 -0.277,-1.793 -0.277,-1.793 C -17.854,0.207 -8.596,-2.836 0,0"
           style="fill:#ffffff;fill-opacity:1;fill-rule:nonzero;stroke:none"
           transform="matrix(0.35277776,0,0,-0.35277776,252.44937,105.43729)"
           clip-path="url(#clipPath44)" />
        <path
           id="path45"
           d="m 0,0 c -0.633,-0.554 -1.646,-1.511 -2.477,-0.937 -0.995,0.688 -2.134,2.538 -3.129,3.216 -3.273,2.231 -8.092,-1.259 -11.191,-1.955 -3.1,-0.695 -4.591,-3.581 -7.373,-3.582 -2.781,0 -3.253,-0.026 -2.558,2.756 0,0 2.577,4.43 7.186,5.273 5.511,1.008 6.738,4.561 13.56,3.941 C -1.521,8.306 1.391,1.217 0,0 m -16.063,21.628 c 3.639,0 7.889,-0.944 8.269,-3.209 0.379,-2.264 -2.963,-7.399 -8.711,-7.399 -3.763,-0.017 -7.665,3.324 -7.665,6.494 0,3.17 3.103,4.114 8.107,4.114 M 9.821,16.761 c -9.884,6.589 -13.222,21.407 -23.926,21.407 -8.814,0 -12.592,-13.289 -24.555,-21.407 -11.389,-7.73 -37.778,-2.519 -40.926,-14.482 -3.22,-12.238 12.87,-15.74 27.351,-22.666 14.482,-6.926 20.501,-39.667 35.612,-39.667 15.229,0 18.899,23.963 28.333,32.111 13.852,11.963 36.165,13.222 36.165,27.704 0,11.333 -22.943,6.926 -38.054,17"
           style="fill:#ffffff;fill-opacity:1;fill-rule:nonzero;stroke:none"
           transform="matrix(0.35277776,0,0,-0.35277776,242.67323,114.37961)"
           clip-path="url(#clipPath46)" />
        <path
           id="path47"
           d="m 0,0 c 5.315,-1.413 16.689,0.187 19.322,9.298 0.924,3.199 1.796,3.275 1.193,4 -1.833,0.717 -4.496,1.694 -5.246,1.24 -0.575,-0.478 0,-2.086 -0.912,-3.477 C 11.003,5.951 8.533,5.803 4.23,6.628 c -5.389,1.956 -6.279,5.628 -5.611,9.755 0.222,1.372 1.881,1.735 1.613,2.328 -0.48,1.058 -3.479,3.728 -5.52,3.346 C -5.999,21.924 -6.825,20.401 -7.07,19.71 -9.658,12.411 -7.502,2.614 0,0"
           style="fill:#ffffff;fill-opacity:1;fill-rule:nonzero;stroke:none"
           transform="matrix(0.35277776,0,0,-0.35277776,220.8967,106.56127)"
           clip-path="url(#clipPath48)" />
        <path
           id="path49"
           d="M 0,0 C 5.748,0 9.09,5.135 8.71,7.399 8.331,9.664 4.081,10.607 0.442,10.607 -4.562,10.607 -7.665,9.664 -7.665,6.494 -7.665,3.323 -3.763,-0.018 0,0"
           style="fill:#bbbbbb;fill-opacity:1;fill-rule:nonzero;stroke:none"
           transform="matrix(0.35277776,0,0,-0.35277776,236.85076,110.49196)"
           clip-path="url(#clipPath50)" />
        <path
           id="path51"
           d="M 0,0 C 0.531,-3.423 1.704,-6.324 1.905,-9.91 2.079,-13.032 3.904,-16.915 3.477,-20.002 2.402,-27.779 2.614,-31.282 2.62,-35.97 24.556,-27.551 39.223,-17.838 35.372,-9.841 31.765,-2.35 18.301,0.697 -0.118,0.899 -0.081,0.597 -0.046,0.295 0,0"
           style="fill:#ffffff;fill-opacity:1;fill-rule:nonzero;stroke:none"
           transform="matrix(0.35277776,0,0,-0.35277776,258.80101,128.42841)"
           clip-path="url(#clipPath52)" />
        <path
           id="path53"
           d="m 0,0 c 0.689,-7.313 14.217,-11.359 33.324,-12.695 -1.374,6.918 -3.002,14.908 -2.355,19.153 0.749,4.923 3.491,9.368 4.711,14.053 0.251,0.966 0.46,2.031 0.659,3.12 C 14.716,16.379 -0.747,7.936 0,0"
           style="fill:#ffffff;fill-opacity:1;fill-rule:nonzero;stroke:none"
           transform="matrix(0.35277776,0,0,-0.35277776,201.53605,143.83105)"
           clip-path="url(#clipPath54)" />
        <path
           id="path55"
           d="m 0,0 c 3.851,-7.997 -10.816,-17.71 -32.752,-26.129 -0.006,4.688 -0.218,8.191 0.857,15.969 0.426,3.086 -1.398,6.969 -1.572,10.092 -0.201,3.585 -1.374,6.487 -1.905,9.909 -0.046,0.295 -0.081,0.598 -0.118,0.899 C -17.072,10.538 -3.607,7.491 0,0 m -69.379,21.722 c -9.434,-8.149 -13.103,-32.111 -28.333,-32.111 -15.111,0 -21.13,32.74 -35.611,39.666 -14.482,6.926 -30.571,10.428 -27.351,22.667 3.148,11.963 29.537,6.752 40.925,14.481 11.963,8.118 15.741,21.407 24.556,21.407 10.703,0 14.042,-14.817 23.925,-21.407 15.112,-10.074 38.055,-5.667 38.055,-17 0,-14.481 -22.314,-15.74 -36.166,-27.703 m -80.508,69.815 c 0.245,0.691 1.071,2.214 1.782,2.347 2.04,0.382 5.039,-2.288 5.519,-3.347 0.269,-0.592 -1.39,-0.956 -1.612,-2.327 -0.668,-4.127 0.222,-7.799 5.611,-9.755 4.303,-0.826 6.772,-0.678 10.126,4.433 0.913,1.391 0.337,2.999 0.913,3.477 0.749,0.454 3.413,-0.524 5.246,-1.24 0.603,-0.725 -0.27,-0.801 -1.194,-4 -2.632,-9.112 -14.007,-10.711 -19.321,-9.298 -7.502,2.613 -9.658,12.411 -7.07,19.71 m 78.032,-4.785 c 0.824,0.221 6.428,1.519 7.059,0.98 0.797,-0.679 0.015,-3.01 0.167,-3.732 1.077,-5.089 4.926,-5.282 9.817,-3.659 3.104,1.294 5.674,4.04 5.677,9.797 10e-4,0.881 -1.585,1.723 -0.975,3.651 0.319,0.816 4.51,3.337 6.4,3.884 0.92,-0.208 0.977,-1.511 1.714,-4.758 2.233,-9.842 -6.303,-15.791 -11.381,-17.902 -8.595,-2.837 -17.854,0.207 -18.756,9.945 0,0 -0.628,1.899 0.278,1.794 m -90.163,-100.061 c -1.22,-4.685 -3.962,-9.13 -4.711,-14.053 -0.647,-4.245 0.981,-12.235 2.355,-19.153 -19.107,1.337 -32.635,5.382 -33.324,12.695 -0.747,7.936 14.716,16.379 36.339,23.631 -0.199,-1.089 -0.408,-2.154 -0.659,-3.12 M 22.392,93.827 C 18.385,93.663 15.312,93.26 10.27,91.887 7.633,91.169 5.866,89.751 3.121,88.616 1.447,87.925 -1.033,86.559 -3.171,85.354 c -0.175,0.589 -0.339,1.15 -0.494,1.681 1.714,2.231 3.558,4.258 5.523,5.891 14.412,11.973 27.973,4.645 28.023,8.356 0.066,4.942 -19.37,9.129 -31.885,-2.853 -1.272,-1.218 -2.435,-2.532 -3.505,-3.912 -0.129,1.781 -0.009,3.505 -0.271,5.231 -0.882,5.835 -4.671,9.6 -5.055,11.418 -0.385,1.826 -2.688,8.783 -4.404,11.185 -1.742,2.439 -2.99,2.159 -3.477,5.1 -0.448,2.708 2.202,4.635 1.739,8.576 -0.664,5.646 -1.345,6.232 -2.434,9.272 -0.974,2.718 -0.534,4.185 -1.623,6.519 -1.21,2.596 -5.799,8.608 -7.693,9.561 -1.649,0.83 -2.816,2.591 -4.041,2.956 -3.697,1.1 -4.256,-1.149 -5.824,-0.869 -3.723,0.663 -4.276,-0.063 -8.258,-2.782 -1.675,-1.144 -2.92,-3.411 -4.52,-4.868 -1.053,-0.959 -3.699,-2.269 -4.693,-3.303 -2.049,-2.129 -1.985,-3.952 -3.651,-6.084 -1.987,-2.544 -2.558,-3.886 -3.721,-5.775 -1.658,0.104 -4.079,2.384 -7.034,2.471 -3.39,0.1 -4.84,-0.714 -6.621,-0.608 -2.89,0.173 -2.928,0.722 -5.659,0.869 -2.353,0.127 -2.334,-0.63 -4.643,-0.405 -1.389,0.135 -4.026,0.672 -5.382,0.811 -1.261,0.129 -4.578,0.522 -5.979,0.364 -2.544,-0.286 -5.042,-1.208 -7.349,-1.175 -2.801,0.04 -6.606,0.811 -9.493,0.256 -4.783,-0.92 -5.146,-2.022 -9.282,-2.458 -2.817,-0.298 -4.99,-0.655 -7.484,-1.153 -0.231,0.577 0.295,2.759 -1.209,5.035 -0.921,1.395 -2.68,2.289 -3.366,3.764 -0.648,1.391 -1.037,2.276 -1.907,3.654 -0.695,1.101 -1.655,0.916 -2.144,1.448 -0.748,0.814 -1.54,2.071 -2.558,2.591 -1.219,0.622 -4.605,0.92 -6.059,1.057 -2.301,0.217 -2.892,-0.745 -5.245,-1.976 -1.225,-0.641 -3.521,-1.159 -4.623,-2.251 -1.217,-2.724 -2.087,-3.013 -4.057,-5.215 -1.612,-1.802 -1.831,-2.24 -3.187,-5.1 -0.913,-1.925 -0.206,-3.586 -1.043,-5.331 -0.799,-1.667 -0.744,-3.59 -1.342,-5.65 -0.4,-1.38 -2.32,-3.512 -2.657,-4.781 -0.985,-3.709 0.568,-4.33 0.376,-6.298 -4.094,-3.639 -6.847,-5.69 -9.937,-10.913 -2.031,-3.432 -4.971,-4.308 -7.054,-8.184 -0.556,-1.033 -3.327,-5.258 -3.834,-6.367 -1.043,-2.285 -0.948,-3.953 -1.745,-6.6 -0.113,-0.377 -0.251,-0.735 -0.398,-1.086 -1.237,1.485 -2.601,2.928 -4.126,4.293 -12.909,11.557 -27.558,6.508 -28.423,1.641 -0.616,-3.467 9.971,5.358 25.001,-6.952 1.645,-1.348 3.195,-2.863 4.65,-4.465 -0.002,-0.003 -0.003,-0.007 -0.005,-0.01 -2.993,1.162 -6.346,2.474 -9.083,3.051 -4.832,1.02 -5.824,1.549 -9.97,1.565 -1.891,0.007 -6.537,-0.939 -8.204,-1.084 -7.537,-0.658 -11.157,-4.519 -11.221,-6.31 -0.092,-2.628 18.41,2.622 25.584,1.362 5.388,-0.946 8.384,-1.92 11.349,-3.015 -0.238,-0.986 -0.446,-2.069 -0.601,-3.303 -0.535,-5.24 1.443,-9.879 2.117,-14.599 0.751,-5.262 0.261,-8.286 2.229,-12.869 1.184,-2.756 2.016,-4.949 4.115,-8.006 0.853,-1.244 1.622,-4.568 3.245,-6.191 2.137,-2.137 4.033,-4.445 5.794,-6.838 2.753,-3.738 4.881,-3.737 8.255,-6.334 3.625,-2.79 3.853,-5.475 10.38,-7.588 1.709,-1.743 4.122,-2.218 7.166,-2.674 -0.537,-1.217 -1.068,-2.492 -1.574,-3.863 -0.203,-0.549 -0.38,-1.145 -0.547,-1.762 -43.007,-11.605 -68.927,-27.332 -70.572,-45.835 -1.807,-20.322 38.744,-40.203 131.63,-28.227 98.286,12.672 138.776,48.549 130.706,69.037 -4.938,12.538 -24.486,20.163 -56.164,21.744 1.504,1.684 2.981,3.453 3.979,4.418 2.654,2.567 4.24,6.068 6.183,8.965 1.601,2.389 4.383,3.971 5.563,6.49 1.7,3.631 2.279,5.064 3.245,8.75 0.908,3.462 3.099,5.575 3.502,8.867 0.603,4.921 1.361,13.923 -0.66,20.252 2.427,1.209 4.78,2.24 7.039,3.104 2.314,0.886 3.773,2.86 5.883,3.452 1.193,0.335 5.632,0.875 6.753,1.134 12.756,2.947 18.162,-0.136 17.584,3 -0.31,1.684 -7.044,5.491 -14.06,5.204"
           style="fill:#bbbbbb;fill-opacity:1;fill-rule:nonzero;stroke:none"
           transform="matrix(0.35277776,0,0,-0.35277776,271.2795,131.90014)"
           clip-path="url(#clipPath56)" />
        <path
           id="path57"
           d="m 0,0 c -6.822,0.62 -8.048,-2.932 -13.56,-3.94 -4.609,-0.843 -7.186,-5.274 -7.186,-5.274 -0.695,-2.781 -0.223,-2.755 2.559,-2.755 2.781,0 4.272,2.886 7.372,3.582 3.1,0.695 7.919,4.185 11.192,1.955 0.995,-0.678 2.134,-2.529 3.129,-3.216 0.83,-0.575 1.844,0.383 2.476,0.936 C 7.373,-7.495 4.462,-0.406 0,0"
           style="fill:#bbbbbb;fill-opacity:1;fill-rule:nonzero;stroke:none"
           transform="matrix(0.35277776,0,0,-0.35277776,240.56276,111.30638)"
           clip-path="url(#clipPath58)" />
      </g>
    </g>
  </g>
</svg>
