<?xml version="1.0" encoding="UTF-8" standalone="no"?>
<!-- Converted by extension-curve -->

<svg
   viewBox="0 0 1480.8973 372.55264"
   width="1480.8973"
   height="372.55264"
   version="1.1"
   id="svg59"
   sodipodi:docname="Yearit_without_funkju.svg"
   inkscape:export-filename="Yearit_without_funkju.svg"
   inkscape:export-xdpi="96"
   inkscape:export-ydpi="96"
   inkscape:version="1.4.2 (ebf0e940d0, 2025-05-08)"
   xmlns:inkscape="http://www.inkscape.org/namespaces/inkscape"
   xmlns:sodipodi="http://sodipodi.sourceforge.net/DTD/sodipodi-0.dtd"
   xmlns="http://www.w3.org/2000/svg"
   xmlns:svg="http://www.w3.org/2000/svg">
  <sodipodi:namedview
     id="namedview1"
     pagecolor="#ffffff"
     bordercolor="#000000"
     borderopacity="0.25"
     inkscape:showpageshadow="2"
     inkscape:pageopacity="0.0"
     inkscape:pagecheckerboard="0"
     inkscape:deskcolor="#d1d1d1"
     showgrid="false"
     inkscape:zoom="0.47631836"
     inkscape:cx="-1391.9262"
     inkscape:cy="-173.20349"
     inkscape:window-width="3838"
     inkscape:window-height="2158"
     inkscape:window-x="0"
     inkscape:window-y="0"
     inkscape:window-maximized="1"
     inkscape:current-layer="svg59" />
  <defs
     id="defs59">
    <rect
       x="1150.491"
       y="592.04102"
       width="160.60687"
       height="145.91081"
       id="rect1" />
    <rect
       x="1150.491"
       y="592.04102"
       width="160.60687"
       height="145.91081"
       id="rect1-3" />
  </defs>
  <g
     id="g9"
     transform="translate(-669.24365,-813.21262)">
    <g
       id="g59">
      <g
         opacity="1"
         style="display:inline"
         id="g1" />
      <g
         opacity="1"
         style="display:inline"
         id="g2" />
      <g
         opacity="1"
         style="display:inline"
         id="g3" />
      <g
         opacity="1"
         style="display:inline"
         id="g4" />
      <g
         opacity="1"
         style="display:inline"
         id="g5" />
      <g
         opacity="1"
         style="display:inline"
         id="g6" />
      <g
         opacity="1"
         style="display:inline"
         id="g7" />
      <g
         opacity="1"
         style="display:inline"
         id="g8" />
      <g
         opacity="1"
         style="display:inline"
         id="g58">
        <g
           style="display:inline;opacity:1;mix-blend-mode:normal"
           id="g57">
          <g
             id="g19"
             transform="translate(-269.72128,18.817764)">
            <path
               d="m 1192.6409,1042.9975 v 0 c 34.227,0 61.97,27.75 61.97,61.98 v 0 c 0,34.22 -27.743,61.97 -61.97,61.97 v 0 c -34.227,0 -61.973,-27.75 -61.973,-61.97 v 0 c 0,-34.23 27.746,-61.98 61.973,-61.98 z"
               style="display:inline;opacity:1;mix-blend-mode:normal;fill:#ff6000;fill-opacity:1;fill-rule:nonzero;stroke:none"
               id="path42" />
            <path
               d="m 1000.9379,1042.9975 v 0 c 34.227,0 61.974,27.75 61.974,61.98 v 0 c 0,34.22 -27.747,61.97 -61.974,61.97 v 0 c -34.22697,0 -61.97297,-27.75 -61.97297,-61.97 v 0 c 0,-34.23 27.746,-61.98 61.97297,-61.98 z"
               style="display:inline;opacity:1;mix-blend-mode:normal;fill:#ff6000;fill-opacity:1;fill-rule:nonzero;stroke:none"
               id="path43" />
            <path
               d="m 1097.0819,1096.9875 v 0 c 16.995,0 30.773,13.78 30.773,30.78 v 0 c 0,16.99 -13.778,30.77 -30.773,30.77 v 0 c -16.996,0 -30.774,-13.78 -30.774,-30.77 v 0 c 0,-17 13.778,-30.78 30.774,-30.78 z"
               style="display:inline;opacity:1;mix-blend-mode:normal;fill:#717171;fill-opacity:1;fill-rule:nonzero;stroke:none"
               id="path44" />
            <path
               d="m 1700.58,1072.23 c 0,2.28 0,4.56 0,6.84 0,2.28 -123.77,6.5 -123.77,6.5 0.46,4.78 1.88,9.11 4.27,12.99 2.4,3.87 5.47,7.24 9.24,10.08 3.76,2.85 7.97,5.08 12.65,6.67 4.67,1.6 9.51,2.4 14.53,2.4 8.89,0 16.41,-1.66 22.56,-4.96 6.16,-3.31 11.17,-7.58 15.05,-12.82 0,0 11.23,26.66 38.98,24.61 0,0 -18.52,20.58 -31.63,26.84 -13.11,6.27 -28.32,9.41 -45.65,9.41 -12.76,0 -24.84,-2 -36.24,-5.99 -11.4,-3.99 -21.37,-9.8 -29.92,-17.43 -8.54,-7.64 -15.27,-17.04 -20.17,-28.21 -4.9,-11.17 -7.35,-23.94 -7.35,-38.3 0,-13.9 2.39,-26.5 7.18,-37.78 4.79,-11.28 11.28,-20.85 19.49,-28.72 8.2,-7.863 17.89,-13.96 29.06,-18.291 11.17,-4.331 23.25,-6.497 36.24,-6.497 12.54,0 24.05,2.109 34.54,6.326 10.48,4.217 19.49,10.314 27.01,18.292 7.52,7.98 13.39,17.67 17.61,29.06 4.21,11.4 6.32,24.39 6.32,38.98 z"
               style="display:inline;opacity:1;mix-blend-mode:normal;fill:#505050;fill-opacity:1;fill-rule:nonzero;stroke:none"
               id="path45" />
            <path
               d="m 2004.69,1029.49 c 0,0 -4.73,-0.34 -7.01,-0.34 -7.52,0 -13.85,1.37 -18.97,4.1 -5.13,2.74 -9.24,6.04 -12.31,9.92 -3.08,3.87 -5.3,8.09 -6.67,12.65 -1.37,4.56 -2.05,8.55 -2.05,11.97 v 87.53 h -56.08 c 0,0 17.74,-114.55 0,-170.277 0,0 24.31,10.726 54.03,0 l 4.2,17.397 c 4.33,-8.658 6.97,-8.507 14.94,-13.978 7.98,-5.47 17.21,-8.206 27.7,-8.206 2.28,0 4.5,0.114 6.67,0.342 2.16,0.228 3.93,0.57 5.3,1.026 0,0 -22.94,12.697 -9.75,47.866 z"
               style="display:inline;opacity:1;mix-blend-mode:normal;fill:#505050;fill-opacity:1;fill-rule:nonzero;stroke:none"
               id="path46" />
            <path
               d="m 2300.79,1027.1 v 64.96 c -34.43,14.12 -54.39,60.79 -54.39,60.79 l -0.32,-125.75 h -27.35 v -42.057 h 27.01 v -44.791 c 0,0 29.06,19.118 55.05,0 v 44.791 h 40 c 0,0 -11.97,17.267 0,42.057 z"
               style="display:inline;opacity:1;mix-blend-mode:normal;fill:#ff6000;fill-opacity:1;fill-rule:nonzero;stroke:none"
               id="path47" />
            <path
               d="m 1312.96,829.555 -44.01,72.825 c 0,0 98.33,28.977 135.22,94.134 36.9,65.156 12.37,166.496 12.37,166.496 l 84.48,-0.63 c 0,0 -21.61,-99.23 15.42,-164.178 37.02,-64.943 132.68,-95.599 132.68,-95.599 l -44,-72.826 c -60.05,68.435 -98.42,80.551 -145.53,80.858 -42.73,0.279 -92.71,-19.305 -146.63,-81.08 z"
               style="display:inline;opacity:1;mix-blend-mode:normal;fill:#505050;fill-opacity:1;fill-rule:nonzero;stroke:none"
               id="path48" />
            <path
               d="m 1998.24,795.437 -15.77,76.018 c 0,0 50.91,3.139 71.45,41.715 20.54,38.576 19.89,115.9 -1.08,154.34 -20.96,38.45 -75.15,25.23 -75.15,25.23 l 2.33,60.87 243.62,-0.15 -0.37,-58.09 c 0,0 -47.18,14.01 -66.48,-24.86 -19.3,-38.88 -19.48,-116.223 -0.11,-154.976 19.36,-38.752 66.96,-23.995 66.96,-23.995 l 1.02,-42.798 c -88.06,-39.882 -88.86,-59.202 -226.42,-53.304 z"
               style="display:inline;opacity:1;mix-blend-mode:normal;fill:#ff6000;fill-opacity:1;fill-rule:nonzero;stroke:none"
               id="path49" />
            <path
               d="m 1615.98,1003.06 v 0 c 17.56,0 31.79,14.24 31.79,31.79 v 0 c 0,17.56 -14.23,31.8 -31.79,31.8 v 0 c -17.56,0 -31.79,-14.24 -31.79,-31.8 v 0 c 0,-17.55 14.23,-31.79 31.79,-31.79 z"
               style="display:inline;opacity:1;mix-blend-mode:normal;fill:#ff6000;fill-opacity:1;fill-rule:nonzero;stroke:none"
               id="path55" />
            <path
               d="m 1715.96,1069.69 c 0.36,-2.25 1.85,-13.41 21.26,-17.89 57.86,-13.33 103.56,11.66 103.56,11.66 0.31,-4.79 -0.41,-9.3 -2.16,-13.5 -1.74,-4.21 -4.24,-8.02 -7.5,-11.43 -3.26,-3.41 -7.07,-6.28 -11.43,-8.6 -4.36,-2.32 -9.02,-3.87 -13.97,-4.67 -8.77,-1.42 -16.46,-0.98 -23.06,1.3 -6.61,2.28 -12.24,5.7 -16.9,10.26 0,0 -6.84,-28.11 -34.56,-30.51 0,0 21.56,-17.358 35.5,-21.46 13.93,-4.102 29.45,-4.774 46.56,-2.016 12.6,2.032 24.21,5.925 34.83,11.677 10.61,5.749 19.53,13.079 26.75,21.979 7.23,8.9 12.37,19.25 15.43,31.06 3.06,11.81 3.45,24.8 1.16,38.98 -2.21,13.72 -6.58,25.77 -13.1,36.15 -4.81,7.65 -2.43,3.51 -6.87,11.52 -1.45,2.62 16.94,15.14 16.94,15.14 -11.56,10.9 -50.17,10.86 -53.93,11.53 -5.2,0.92 -3.78,-1.16 -11.56,0.5 -11.72,2.49 -23.99,2.71 -36.81,0.64 -12.38,-2 -23.41,-5.91 -33.09,-11.74 -9.68,-5.84 -17.6,-13.29 -23.76,-22.36 -6.15,-9.08 -10.4,-19.58 -12.75,-31.5 -2.35,-11.92 -2.86,-12.32 -0.54,-26.72 z"
               style="display:inline;opacity:1;mix-blend-mode:normal;fill:#505050;fill-opacity:1;fill-rule:nonzero;stroke:none"
               id="path56" />
            <path
               d="m 1786,1134.96 v 0 c -17.34,-2.8 -29.12,-19.12 -26.33,-36.45 v 0 c 2.8,-17.33 19.12,-29.12 36.45,-26.32 v 0 c 17.34,2.79 29.12,19.11 26.33,36.44 v 0 c -2.8,17.34 -19.12,29.12 -36.45,26.33 z"
               style="display:inline;opacity:1;mix-blend-mode:normal;fill:#ff6000;fill-opacity:1;fill-rule:nonzero;stroke:none"
               id="path57" />
          </g>
        </g>
      </g>
    </g>
    <text
       xml:space="preserve"
       id="text1"
       style="font-size:85.3333px;text-align:start;writing-mode:lr-tb;direction:ltr;white-space:pre;shape-inside:url(#rect1);fill:#ff6000;fill-opacity:1"
       transform="matrix(0.46855192,0,0,0.46855192,429.5412,754.86342)"><tspan
         x="1150.4902"
         y="670.97432"
         id="tspan3">®</tspan></text>
    <text
       xml:space="preserve"
       id="text1-5"
       style="font-size:85.3333px;text-align:start;writing-mode:lr-tb;direction:ltr;white-space:pre;shape-inside:url(#rect1-3);fill:#ff6000;fill-opacity:1"
       transform="translate(925.58143,381.43435)"><tspan
         x="1150.4902"
         y="670.97432"
         id="tspan4">®</tspan></text>
  </g>
</svg>
